<svg width="400" height="400" viewBox="0 0 400 400" fill="none" xmlns="http://www.w3.org/2000/svg">
<rect width="400" height="400" rx="200" fill="#FFFCFA"/>
<path fill-rule="evenodd" clip-rule="evenodd" d="M200 400C310.457 400 400 310.457 400 200C400 89.5431 310.457 0 200 0C89.5431 0 0 89.5431 0 200C0 310.457 89.5431 400 200 400ZM225.764 128.927L293.095 89.706L293.094 171.246C293.094 192.18 281.968 211.538 263.878 222.075L202.43 257.868L202.43 318.492L135.099 279.271C117.009 268.734 105.883 249.377 105.883 228.442L105.882 146.902L173.214 186.123C183.497 192.113 191.53 200.953 196.548 211.312L196.548 179.756C196.548 158.821 207.674 139.464 225.764 128.927Z" fill="#1CA97F"/>
</svg>
